<svg id="Layer_1" enable-background="new 0 0 512 512" height="512" viewBox="0 0 512 512" width="512" xmlns="http://www.w3.org/2000/svg"><g id="XMLID_133_"><g id="XMLID_478_"><path id="XMLID_724_" d="m421.357 95.939c-10.785-16.657-29.139-26.759-49.328-26.759-22.862 0-43.268 13.065-52.972 33.212-9.505.228-18.236 3.62-25.194 9.151v-1.543c0-1.368-.28-2.721-.824-3.977l-25.176-58.098v-37.925c0-5.522-4.478-10-10-10s-10 4.478-10 10v37.925l-25.176 58.098c-.544 1.256-.824 2.608-.824 3.977v40.243l-39.525 45.172c-1.596 1.823-2.475 4.163-2.475 6.585v92.214c-10.589-9.546-24.461-15.034-39.334-15.034-22.862 0-43.268 13.065-52.972 33.212-22.809.546-41.194 19.27-41.194 42.207 0 23.28 18.939 42.22 42.22 42.22 8.563 0 16.729-2.529 23.654-7.235 8.625 4.753 18.271 7.235 28.292 7.235 8.973 0 17.749-2.029 25.728-5.914 6.565 3.751 13.916 5.752 21.606 5.888v105.207c0 5.522 4.478 10 10 10h120c5.522 0 10-4.478 10-10v-154.201c4.564-.927 8-4.962 8-9.799v-23.003c0-5.522-4.478-10-10-10s-10 4.478-10 10v13.003h-88.213c-6.1-10.13-16.039-17.689-27.787-20.671v-95.329h116v13.003c0 5.522 4.478 10 10 10s10-4.478 10-10v-23.003c0-2.422-.879-4.762-2.475-6.585l-7.833-8.952c6.552-.842 12.749-3.188 18.182-6.879 8.625 4.753 18.271 7.235 28.292 7.235 8.974 0 17.749-2.029 25.728-5.914 6.801 3.887 14.44 5.914 22.433 5.914 25.06 0 45.447-20.388 45.447-45.447 0-24.67-19.757-44.811-44.28-45.433zm-163.494-20.789 10.769 24.85h-21.537zm16 44.85v24h-32v-24zm-37.462 44h42.924l24.5 28h-91.924zm11.462 246v-62h20v62zm20 20v62h-20v-62zm-40-55.628v35.628h-20v-17.438c8.361-3.907 15.341-10.284 20-18.19zm-20 55.628h20v62h-20zm80 62v-62h18c.685 0 1.354-.07 2-.201v62.201zm20-81.799c-.646-.131-1.315-.201-2-.201h-18v-62h20zm-93.726-58.829c0 14.031-11.416 25.447-25.447 25.447-5.774 0-11.221-1.892-15.752-5.472-1.81-1.43-4.001-2.153-6.2-2.153-1.861 0-3.729.519-5.374 1.567-6.217 3.963-13.421 6.058-20.834 6.058-8.386 0-16.367-2.63-23.081-7.605-3.999-2.964-9.567-2.535-13.065 1.004-4.209 4.257-9.82 6.602-15.8 6.602-12.252 0-22.22-9.968-22.22-22.22s9.968-22.22 22.22-22.22c1.248 0 2.533.113 3.819.335 4.899.854 9.672-2.03 11.212-6.755 5.22-16.018 20.055-26.779 36.915-26.779 14.811 0 28.126 8.239 34.751 21.503 1.896 3.796 5.986 5.98 10.191 5.453 1.133-.142 2.186-.211 3.218-.211 14.031 0 25.447 11.415 25.447 25.446zm206.052-184.553c-5.774 0-11.221-1.893-15.751-5.472-1.81-1.43-4.001-2.154-6.201-2.154-1.862 0-3.729.519-5.375 1.568-6.216 3.963-13.42 6.058-20.833 6.058-8.386 0-16.367-2.63-23.081-7.605-3.999-2.963-9.566-2.536-13.065 1.004-4.209 4.257-9.82 6.602-15.8 6.602-12.252 0-22.22-9.968-22.22-22.22s9.968-22.22 22.22-22.22c1.248 0 2.533.113 3.819.335 4.9.854 9.673-2.03 11.212-6.755 5.22-16.018 20.055-26.779 36.915-26.779 14.811 0 28.126 8.239 34.751 21.503 1.896 3.796 5.985 5.979 10.191 5.453 1.138-.143 2.19-.212 3.218-.212 14.031 0 25.447 11.416 25.447 25.447s-11.415 25.447-25.447 25.447z"/><path id="XMLID_1298_" d="m219.863 270c0 20.953 17.047 38 38 38s38-17.047 38-38-17.047-38-38-38-38 17.047-38 38zm56 0c0 9.925-8.075 18-18 18s-18-8.075-18-18 8.075-18 18-18 18 8.075 18 18z"/><path id="XMLID_1299_" d="m325.859 260c-2.63 0-5.21 1.069-7.069 2.93-1.86 1.86-2.931 4.44-2.931 7.07s1.07 5.21 2.931 7.069c1.859 1.86 4.439 2.931 7.069 2.931 2.641 0 5.21-1.07 7.07-2.931 1.87-1.859 2.93-4.439 2.93-7.069s-1.06-5.21-2.93-7.07c-1.86-1.861-4.429-2.93-7.07-2.93z"/></g></g></svg>