<?xml version="1.0" encoding="iso-8859-1"?>
<!-- Generator: Adobe Illustrator 19.0.0, SVG Export Plug-In . SVG Version: 6.00 Build 0)  -->
<svg version="1.1" id="Capa_1" xmlns="http://www.w3.org/2000/svg" xmlns:xlink="http://www.w3.org/1999/xlink" x="0px" y="0px"
	 viewBox="0 0 512 512" style="enable-background:new 0 0 512 512;" xml:space="preserve">
<g>
	<g>
		<g>
			<path d="M243.84,243.985c-6.63,6.682-6.588,17.51,0.094,24.132c3.311,3.294,7.671,4.932,12.023,4.932
				c4.343,0,8.695-1.638,11.998-4.924c3.243-3.208,5.043-7.492,5.06-12.058c0.017-4.557-1.741-8.841-4.949-12.083
				c-3.209-3.243-7.484-5.035-12.041-5.052c-0.026,0-0.051,0-0.077,0c-4.531,0-8.798,1.758-12.015,4.949
				C243.917,243.9,243.849,243.968,243.84,243.985z"/>
			<path d="M273.963,86.323c-2.398-0.222-4.804,0.521-6.605,2.142c-1.8,1.613-2.825,3.917-2.825,6.34v112.981
				c0,3.618,2.287,6.844,5.692,8.047c16.99,6.007,28.424,22.153,28.467,40.764c0.102,1.493,0.102,3.012,0,4.514
				c-0.23,3.26,1.417,6.357,4.232,7.987l98.389,56.917c1.314,0.768,2.79,1.152,4.275,1.152c0.922,0,1.835-0.154,2.722-0.444
				c2.33-0.785,4.207-2.526,5.154-4.796c6.4-15.317,10.539-31.445,12.271-47.94c4.796-45.338-8.354-89.822-37.018-125.269
				C360.055,113.28,319.3,91.119,273.963,86.323z M408.781,272.196c-1.229,11.605-3.772,23.023-7.578,34.039l-85.41-49.408
				c-0.017-0.29-0.034-0.572-0.051-0.828c-0.026-23.159-13.517-44.109-34.133-53.896v-97.519
				c37.001,6.195,70.059,25.446,93.85,54.869C401.254,191.352,413.09,231.39,408.781,272.196z"/>
			<path d="M213.692,261.214c-2.577-19.755,9.216-38.835,28.041-45.363c3.43-1.195,5.734-4.429,5.734-8.064V94.805
				c0-2.423-1.033-4.727-2.825-6.34c-1.801-1.613-4.215-2.372-6.605-2.142C151.006,95.531,85.35,168.482,85.333,256
				c-0.008,23.62,4.796,46.558,14.293,68.19c0.981,2.253,2.884,3.959,5.214,4.702c0.845,0.273,1.724,0.41,2.594,0.41
				c1.527,0,3.038-0.41,4.378-1.212l97.792-58.453C212.523,267.895,214.127,264.585,213.692,261.214z M111.625,308.326
				c-6.135-16.777-9.233-34.338-9.224-52.318c0-0.009,0-0.009,0-0.009c0.017-75.571,54.4-139.076,128-151.424v97.485
				c-21.333,10.018-34.859,32.068-34.099,55.646L111.625,308.326z"/>
			<path d="M393.156,341.683l-97.707-55.552c-3.234-1.835-7.313-1.365-10.052,1.186c-16.35,15.317-41.967,15.317-58.308,0
				c-2.765-2.594-6.895-3.055-10.155-1.126l-96.853,56.917c-2.065,1.212-3.524,3.243-4.019,5.581
				c-0.495,2.338,0.008,4.779,1.408,6.733c31.881,44.621,83.627,71.245,138.453,71.245c0.085-0.017,0.179,0,0.282,0
				c55.586,0,107.81-27.162,139.716-72.67c1.382-1.971,1.869-4.429,1.34-6.776C396.74,344.883,395.247,342.869,393.156,341.683z
				 M256.205,409.6c-0.06,0-0.128,0-0.196,0H256c-0.026,0-0.051,0-0.077,0c-46.191,0-89.967-21.018-118.895-56.644l83.379-48.998
				c21.171,15.88,50.628,15.863,71.765-0.051l84.147,47.838C347.307,388.139,303.078,409.6,256.205,409.6z"/>
			<path d="M504.977,224.461l-42.035-7.569l-2.423-9.079c-1.877-7.014-3.2-11.998-5.768-21.444l32.631-27.639
				c3.149-2.662,3.934-7.202,1.877-10.778l-23.04-39.936c-2.057-3.567-6.409-5.154-10.266-3.763l-40.226,14.396L393.31,96.299
				l14.089-40.235c1.365-3.866-0.23-8.158-3.78-10.206l-40.013-23.125c-3.567-2.082-8.124-1.271-10.786,1.877l-27.571,32.64
				l-30.575-8.201l-7.578-42.027C286.362,2.961,282.82,0,278.699,0h-46.165c-4.13,0-7.663,2.961-8.397,7.031l-7.569,42.027
				l-30.583,8.201l-27.563-32.64c-2.671-3.157-7.219-3.959-10.795-1.886l-40.021,23.125c-3.558,2.057-5.146,6.366-3.763,10.249
				l14.319,40.235l-22.238,22.306L55.706,104.26c-3.883-1.382-8.209,0.196-10.266,3.772L22.4,147.968
				c-2.057,3.567-1.28,8.098,1.869,10.769l32.572,27.657L48.7,216.909l-41.694,7.569C2.953,225.22,0,228.753,0,232.875v46.251
				c0,4.13,2.961,7.663,7.031,8.397l42.112,7.578l8.132,30.498l-32.58,27.657c-3.14,2.671-3.925,7.202-1.869,10.778l23.04,39.936
				c2.074,3.575,6.409,5.163,10.283,3.763l40.158-14.447l21.862,22.306l-14.49,40.269c-1.399,3.883,0.188,8.218,3.755,10.283
				l40.021,23.125c3.584,2.057,8.124,1.263,10.795-1.886l27.563-32.64l30.583,8.209l7.569,42.035
				c0.734,4.053,4.267,7.014,8.397,7.014h46.165c4.122,0,7.663-2.961,8.405-7.014l7.578-42.035l30.583-8.209l27.563,32.64
				c2.654,3.14,7.194,3.951,10.786,1.886l40.021-23.125c3.576-2.065,5.154-6.4,3.763-10.283l-14.473-40.209l22.383-22.391
				l40.218,14.473c3.866,1.399,8.218-0.188,10.283-3.763l23.04-39.936c2.056-3.576,1.271-8.107-1.877-10.778l-32.64-27.639
				c2.714-9.984,4.045-14.976,6.093-22.63l2.099-7.876l42.607-7.586c4.07-0.725,7.04-4.267,7.04-8.397v-46.251
				C512,228.745,509.039,225.212,504.977,224.461z M494.933,271.974l-40.909,7.287c-3.268,0.58-5.888,2.995-6.75,6.195
				l-3.507,13.133c-2.364,8.866-3.772,14.148-7.492,27.793c-0.879,3.2,0.188,6.605,2.714,8.747l31.351,26.547l-15.915,27.58
				l-38.596-13.892c-3.132-1.101-6.596-0.333-8.926,1.997l-30.037,30.046c-2.338,2.338-3.115,5.82-1.997,8.926l13.892,38.588
				l-27.665,15.991l-26.462-31.326c-2.133-2.517-5.504-3.618-8.721-2.731l-41.054,11.008c-3.191,0.853-5.606,3.473-6.195,6.724
				l-7.27,40.346h-31.898l-7.262-40.346c-0.589-3.251-2.995-5.862-6.187-6.724l-41.045-11.008c-3.183-0.87-6.596,0.213-8.73,2.731
				l-26.453,31.326l-27.665-15.991l13.884-38.588c1.101-3.081,0.358-6.528-1.937-8.866l-29.44-30.046
				c-2.338-2.381-5.845-3.157-8.986-2.057l-38.596,13.892l-15.923-27.588l31.266-26.539c2.517-2.133,3.575-5.521,2.722-8.713
				l-10.923-40.96c-0.862-3.191-3.482-5.615-6.733-6.195l-40.422-7.27V240l40.013-7.262c3.243-0.589,5.862-2.995,6.716-6.187
				l10.923-40.96c0.853-3.191-0.205-6.579-2.722-8.713L40.73,150.332l15.923-27.597l38.605,13.815
				c3.098,1.118,6.588,0.341,8.917-2.005l29.867-29.952c2.33-2.33,3.098-5.794,1.997-8.892l-13.747-38.613l27.691-16l26.453,31.317
				c2.133,2.534,5.53,3.593,8.73,2.739l41.045-11.008c3.183-0.862,5.598-3.482,6.187-6.733l7.27-40.337h31.898l7.262,40.329
				c0.597,3.26,3.004,5.879,6.195,6.733l41.045,11.008c3.217,0.87,6.596-0.205,8.721-2.731l26.462-31.326l27.716,16.017
				l-13.525,38.639c-1.092,3.106-0.299,6.554,2.022,8.866l30.037,29.952c2.33,2.33,5.803,3.098,8.9,1.988l38.596-13.815
				l15.923,27.588l-31.343,26.547c-2.526,2.142-3.584,5.555-2.714,8.755c3.541,13.013,4.983,18.423,7.168,26.598l3.831,14.328
				c0.853,3.191,3.473,5.606,6.724,6.195l40.346,7.27V271.974z"/>
		</g>
	</g>
</g>
<g>
</g>
<g>
</g>
<g>
</g>
<g>
</g>
<g>
</g>
<g>
</g>
<g>
</g>
<g>
</g>
<g>
</g>
<g>
</g>
<g>
</g>
<g>
</g>
<g>
</g>
<g>
</g>
<g>
</g>
</svg>
