<svg id="Capa_1" enable-background="new 0 0 510 510" height="512" viewBox="0 0 510 510" width="512" xmlns="http://www.w3.org/2000/svg"><g><path d="m257.573 120c-90.981 0-165 74.019-165 165s74.019 165 165 165c90.982 0 165-74.019 165-165s-74.018-165-165-165zm134.162 180c-6.939 62.478-56.684 112.224-119.162 119.162v-29.162h-30v29.162c-62.478-6.938-112.223-56.684-119.162-119.162h29.162v-30h-29.162c6.939-62.479 56.684-112.223 119.162-119.162v29.162h30v-29.162c62.479 6.939 112.224 56.683 119.162 119.162h-29.162v30z"/><path d="m310.606 210.754-33.643 33.644c-5.875-2.817-12.45-4.398-19.39-4.398-24.813 0-45 20.186-45 45s20.187 45 45 45c24.814 0 45-20.186 45-45 0-6.939-1.581-13.514-4.397-19.389l33.643-33.645zm-53.033 89.246c-8.271 0-15-6.728-15-15s6.729-15 15-15c8.272 0 15 6.728 15 15s-6.728 15-15 15z"/><path d="m460.644 103.216 21.177 21.177 21.213-21.213-63.64-63.64-21.213 21.213 21.249 21.25-33.559 33.79c-28.903-25.403-63.29-42.687-100.362-50.691l8.775-35.102h33.289v-30h-180v30h33.289l8.775 35.102c-38.178 8.243-73.515 26.315-102.94 52.974l-36.093-36.107 21.215-21.215-21.213-21.213-63.64 63.64 21.213 21.213 21.212-21.211 36.44 36.454c-34.464 40.581-53.258 91.525-53.258 145.363 0 124.349 100.633 225 225 225 124.351 0 225-100.633 225-225 0-54.999-19.612-106.978-55.508-147.975zm-177.282-73.216-7.682 30.726c-12.222-.967-23.993-.967-36.215 0l-7.681-30.726zm169.211 255c0 107.523-87.477 195-195 195s-195-87.477-195-195 87.477-195 195-195 195 87.477 195 195z"/></g></svg>