<?xml version="1.0"?>
<svg xmlns="http://www.w3.org/2000/svg" viewBox="0 0 96 96" width="512" height="512"><g id="_09-timer" data-name="09-timer"><path d="M77.08,28.577l5.748-5.748-5.656-5.658L71.023,23.32A39.747,39.747,0,0,0,52,16.2V8h8V0H36V8h8v8.2A39.747,39.747,0,0,0,24.977,23.32l-6.149-6.149-5.656,5.658,5.748,5.748a40,40,0,1,0,58.16,0ZM48,88A32,32,0,1,1,80,56,32.036,32.036,0,0,1,48,88Z"/><path d="M48,28a4,4,0,0,0-4,4V52H24a4,4,0,0,0-4,4A28,28,0,1,0,48,28Zm0,48A20.037,20.037,0,0,1,28.4,60H48a4,4,0,0,0,4-4V36.4A20,20,0,0,1,48,76Z"/></g></svg>
