<svg xmlns="http://www.w3.org/2000/svg" width="554.625" height="554.624" viewBox="0 0 554.625 554.624">
  <g id="circular-wall-clock-for-livingroom" transform="translate(223 42)">
    <g id="Group_328" data-name="Group 328" transform="translate(-223 -42)">
      <path id="Path_238" data-name="Path 238" d="M277.312,0C124.312,0,0,124.312,0,277.312S124.312,554.624,277.312,554.624,554.624,430.312,554.624,277.312,430.312,0,277.312,0Zm0,497.25c-121.444,0-219.938-98.494-219.938-219.938S155.868,57.374,277.312,57.374,497.25,155.868,497.25,277.312,398.756,497.25,277.312,497.25Z" fill="#fff"/>
      <rect id="Rectangle_1094" data-name="Rectangle 1094" width="28.688" height="57.375" transform="translate(258.188 77.456)" fill="#fff"/>
      <rect id="Rectangle_1095" data-name="Rectangle 1095" width="57.375" height="28.688" transform="translate(411.188 259.144)" fill="#fff"/>
      <rect id="Rectangle_1096" data-name="Rectangle 1096" width="57.375" height="28.688" transform="translate(76.5 259.144)" fill="#fff"/>
      <rect id="Rectangle_1097" data-name="Rectangle 1097" width="28.688" height="57.375" transform="translate(258.188 412.144)" fill="#fff"/>
      <circle id="Ellipse_282" data-name="Ellipse 282" cx="15.3" cy="15.3" r="15.3" transform="translate(360.028 123.356)" fill="#fff"/>
      <circle id="Ellipse_283" data-name="Ellipse 283" cx="15.3" cy="15.3" r="15.3" transform="translate(407.841 180.731)" fill="#fff"/>
      <circle id="Ellipse_284" data-name="Ellipse 284" cx="15.3" cy="15.3" r="15.3" transform="translate(111.403 352.856)" fill="#fff"/>
      <circle id="Ellipse_285" data-name="Ellipse 285" cx="15.3" cy="15.3" r="15.3" transform="translate(159.216 410.231)" fill="#fff"/>
      <circle id="Ellipse_286" data-name="Ellipse 286" cx="15.3" cy="15.3" r="15.3" transform="translate(403.059 357.638)" fill="#fff"/>
      <circle id="Ellipse_287" data-name="Ellipse 287" cx="15.3" cy="15.3" r="15.3" transform="translate(345.684 405.45)" fill="#fff"/>
      <circle id="Ellipse_288" data-name="Ellipse 288" cx="15.3" cy="15.3" r="15.3" transform="translate(116.184 166.387)" fill="#fff"/>
      <circle id="Ellipse_289" data-name="Ellipse 289" cx="15.3" cy="15.3" r="15.3" transform="translate(173.559 118.575)" fill="#fff"/>
      <path id="Path_239" data-name="Path 239" d="M360.028,287.831a14.088,14.088,0,0,0-14.344-14.344h-58.81v-107.1a14.344,14.344,0,0,0-28.688,0V287.831a14.088,14.088,0,0,0,14.344,14.344h73.153A14.088,14.088,0,0,0,360.028,287.831Z" fill="#fff"/>
    </g>
  </g>
</svg>
