<svg xmlns="http://www.w3.org/2000/svg" width="419.273" height="512" viewBox="0 0 419.273 512">
  <g id="XMLID_133_" transform="translate(422.637 49)">
    <g id="XMLID_478_" transform="translate(-469 -49)">
      <path id="XMLID_724_" d="M421.357,95.939a58.848,58.848,0,0,0-102.3,6.453,42,42,0,0,0-25.194,9.151V110a10,10,0,0,0-.824-3.977l-25.176-58.1V10a10,10,0,0,0-20,0V47.925l-25.176,58.1a10,10,0,0,0-.824,3.977v40.243l-39.525,45.172A10,10,0,0,0,179.863,202v92.214a58.9,58.9,0,0,0-92.306,18.178,42.22,42.22,0,1,0,24.68,77.192,58.928,58.928,0,0,0,54.02,1.321,44.889,44.889,0,0,0,21.606,5.888V502a10,10,0,0,0,10,10h120a10,10,0,0,0,10-10V347.8a10,10,0,0,0,8-9.8V315a10,10,0,1,0-20,0v13H227.65a45.61,45.61,0,0,0-27.787-20.671V212h116v13a10,10,0,0,0,20,0V202a10,10,0,0,0-2.475-6.585l-7.833-8.952a41.732,41.732,0,0,0,18.182-6.879,58.928,58.928,0,0,0,54.02,1.321,44.922,44.922,0,0,0,22.433,5.914,45.447,45.447,0,0,0,1.167-90.88ZM257.863,75.15,268.632,100H247.095Zm16,44.85v24h-32V120ZM236.4,164h42.924l24.5,28H211.9Zm11.462,246V348h20v62Zm20,20v62h-20V430Zm-40-55.628V410h-20V392.562A45.73,45.73,0,0,0,227.863,374.372Zm-20,55.628h20v62h-20Zm80,62V430h18a10.058,10.058,0,0,0,2-.2V492Zm20-81.8a10.056,10.056,0,0,0-2-.2h-18V348h20Zm-93.726-58.829a25.476,25.476,0,0,1-25.447,25.447,25.169,25.169,0,0,1-15.752-5.472,10,10,0,0,0-11.574-.586,38.84,38.84,0,0,1-43.915-1.547,10,10,0,0,0-13.065,1,22.218,22.218,0,1,1-15.8-37.838,22.53,22.53,0,0,1,3.819.335,9.991,9.991,0,0,0,11.212-6.755,38.833,38.833,0,0,1,71.666-5.276,10,10,0,0,0,10.191,5.453,25.4,25.4,0,0,1,28.665,25.235ZM420.189,166.819a25.17,25.17,0,0,1-15.751-5.472,10,10,0,0,0-11.576-.586,38.838,38.838,0,0,1-43.914-1.547,10,10,0,0,0-13.065,1,22.218,22.218,0,1,1-15.8-37.838,22.528,22.528,0,0,1,3.819.335,9.99,9.99,0,0,0,11.212-6.755,38.833,38.833,0,0,1,71.666-5.276,10.006,10.006,0,0,0,10.191,5.453,25.443,25.443,0,1,1,3.218,50.682Z" fill="#fff"/>
      <path id="XMLID_1298_" d="M219.863,270a38,38,0,1,0,38-38A38.043,38.043,0,0,0,219.863,270Zm56,0a18,18,0,1,1-18-18A18.021,18.021,0,0,1,275.863,270Z" fill="#fff"/>
      <path id="XMLID_1299_" d="M325.859,260a10,10,0,1,0,7.07,2.93A10.067,10.067,0,0,0,325.859,260Z" fill="#fff"/>
    </g>
  </g>
</svg>
