<svg width="26" height="29" viewBox="0 0 26 29" fill="none" xmlns="http://www.w3.org/2000/svg">
<g id="Bell">
<g id="bell-crown">
<path id="Vector" d="M12.997 6.21429C12.4035 6.21429 11.8234 6.03206 11.3299 5.69064C10.8365 5.34922 10.4519 4.86395 10.2248 4.2962C9.99764 3.72844 9.93821 3.1037 10.054 2.50097C10.1698 1.89824 10.4556 1.3446 10.8752 0.910063C11.2949 0.475521 11.8295 0.179594 12.4116 0.0597043C12.9937 -0.0601855 13.597 0.00134628 14.1453 0.236519C14.6936 0.471691 15.1623 0.869941 15.492 1.38091C15.8217 1.89188 15.9977 2.49261 15.9977 3.10714C15.9977 3.93121 15.6816 4.72152 15.1188 5.30423C14.5561 5.88693 13.7929 6.21429 12.997 6.21429ZM12.997 2.07143C12.7992 2.07143 12.6058 2.13217 12.4413 2.24598C12.2768 2.35979 12.1486 2.52154 12.0729 2.71079C11.9972 2.90005 11.9774 3.10829 12.016 3.3092C12.0546 3.51011 12.1499 3.69466 12.2898 3.8395C12.4296 3.98435 12.6079 4.08299 12.8019 4.12296C12.9959 4.16292 13.197 4.14241 13.3798 4.06402C13.5626 3.98563 13.7188 3.85288 13.8287 3.68256C13.9386 3.51223 13.9973 3.31199 13.9973 3.10714C13.9973 2.83246 13.8919 2.56902 13.7043 2.37478C13.5167 2.18055 13.2623 2.07143 12.997 2.07143Z" fill="#3B526F"/>
</g>
<g id="bell-tongue">
<path id="Vector_2" d="M15.9977 22.7857H9.99632C9.73105 22.7857 9.47663 22.8948 9.28905 23.0891C9.10148 23.2833 8.99609 23.5467 8.99609 23.8214V24.8571C8.99609 25.9559 9.41762 27.0096 10.1679 27.7866C10.9183 28.5635 11.9359 29 12.997 29C14.0581 29 15.0758 28.5635 15.8261 27.7866C16.5764 27.0096 16.9979 25.9559 16.9979 24.8571V23.8214C16.9979 23.5467 16.8926 23.2833 16.705 23.0891C16.5174 22.8948 16.263 22.7857 15.9977 22.7857Z" fill="#3B526F"/>
</g>
<g id="bell-body">
<path id="Vector_3" d="M25.4499 22.8997C24.4111 22.366 23.5372 21.5418 22.9274 20.5204C22.3175 19.499 21.996 18.3212 21.9991 17.1204V13.4643C21.9991 10.9921 21.0507 8.62117 19.3625 6.87307C17.6743 5.12496 15.3846 4.14288 12.9971 4.14288C10.6096 4.14288 8.31986 5.12496 6.63164 6.87307C4.94342 8.62117 3.99499 10.9921 3.99499 13.4643V17.1204C3.99817 18.3212 3.67663 19.499 3.06677 20.5204C2.4569 21.5418 1.58307 22.366 0.5442 22.8997C0.344857 23.0054 0.185556 23.1774 0.0918166 23.388C-0.00192304 23.5986 -0.0246767 23.8358 0.0272008 24.0614C0.0790783 24.287 0.202585 24.488 0.377935 24.6323C0.553285 24.7766 0.770331 24.8558 0.994303 24.8572H24.9998C25.2238 24.8558 25.4408 24.7766 25.6162 24.6323C25.7915 24.488 25.9151 24.287 25.9669 24.0614C26.0188 23.8358 25.9961 23.5986 25.9023 23.388C25.8086 23.1774 25.6493 23.0054 25.4499 22.8997Z" fill="url(#paint0_linear)"/>
</g>
</g>
<defs>
<linearGradient id="paint0_linear" x1="12.9971" y1="4.14288" x2="12.9971" y2="24.8572" gradientUnits="userSpaceOnUse">
<stop stop-color="#A0FF88"/>
<stop offset="1" stop-color="#03FDEE"/>
</linearGradient>
</defs>
</svg>
