<svg xmlns="http://www.w3.org/2000/svg" width="612" height="658.865" viewBox="0 0 612 658.865">
  <g id="alarm-clock-of-circular-shape" transform="translate(-23.432)">
    <g id="Group_327" data-name="Group 327">
      <path id="Path_234" data-name="Path 234" d="M372.494,379.645h70.977a29.539,29.539,0,0,0,0-59.078H372.484a52.167,52.167,0,0,0-43.062-22.706c-.3,0-.54.074-.826.1l-64.678-91.037a29.535,29.535,0,1,0-48.154,34.213l64.742,91.122a52.142,52.142,0,0,0,91.988,47.391Z" fill="#fff"/>
      <path id="Path_235" data-name="Path 235" d="M547.634,564.471a304.856,304.856,0,0,0,87.8-214.36c0-169-137-305.989-306-305.989s-306,136.979-306,305.989A304.9,304.9,0,0,0,111.24,564.482L83.558,592.153a39.069,39.069,0,1,0,55.236,55.268l34.5-34.488a303.9,303.9,0,0,0,312.3-.01l34.5,34.5a39.069,39.069,0,0,0,55.236-55.268ZM329.421,530.109a19.693,19.693,0,0,0-19.679,19.7v26.527C200.149,566.862,112.669,479.382,103.205,369.8h26.528a19.688,19.688,0,1,0,0-39.377H103.205c9.464-109.583,96.944-197.074,206.537-206.527v26.538a19.684,19.684,0,0,0,39.368,0V123.9c109.594,9.453,197.062,96.943,206.537,206.527H529.109a19.688,19.688,0,1,0,0,39.377h26.538c-9.464,109.583-96.933,197.063-206.526,206.537V549.82A19.707,19.707,0,0,0,329.421,530.109Z" fill="#fff"/>
      <path id="Path_236" data-name="Path 236" d="M250.939,27.819A142.3,142.3,0,0,0,35.119,196.946,332.94,332.94,0,0,1,250.939,27.819Z" fill="#fff"/>
      <path id="Path_237" data-name="Path 237" d="M623.734,196.947A142.23,142.23,0,0,0,407.925,27.841,332.946,332.946,0,0,1,623.734,196.947Z" fill="#fff"/>
    </g>
  </g>
</svg>
