<svg width="30" height="30" viewBox="0 0 30 30" fill="none" xmlns="http://www.w3.org/2000/svg">
<path d="M27.7929 13.4374C27.2754 13.4374 26.8554 13.0174 26.8554 12.4999C26.8554 8.90991 25.4581 5.53619 22.9205 2.99744C22.5542 2.63123 22.5542 2.03751 22.9205 1.6713C23.2867 1.30508 23.8804 1.30508 24.2468 1.6713C27.1381 4.56367 28.7304 8.41003 28.7304 12.4999C28.7304 13.0174 28.3104 13.4374 27.7929 13.4374V13.4374Z" fill="black"/>
<path d="M2.16797 13.4374C1.65047 13.4374 1.23047 13.0174 1.23047 12.4999C1.23047 8.41002 2.82303 4.56366 5.71541 1.67242C6.08162 1.30621 6.67557 1.30621 7.04178 1.67242C7.40799 2.03864 7.40799 2.63258 7.04178 2.99879C4.50302 5.53618 3.10547 8.9099 3.10547 12.4999C3.10547 13.0174 2.68547 13.4374 2.16797 13.4374Z" fill="black"/>
<path d="M14.9805 30C12.3956 30 10.293 27.8975 10.293 25.3125C10.293 24.795 10.713 24.375 11.2305 24.375C11.748 24.375 12.168 24.795 12.168 25.3125C12.168 26.8639 13.4292 28.125 14.9805 28.125C16.5317 28.125 17.793 26.8639 17.793 25.3125C17.793 24.795 18.213 24.375 18.7305 24.375C19.248 24.375 19.668 24.795 19.668 25.3125C19.668 27.8975 17.5655 30 14.9805 30V30Z" fill="black"/>
<path d="M25.293 26.25H4.66805C3.46161 26.25 2.48039 25.2688 2.48039 24.0626C2.48039 23.4224 2.75917 22.8163 3.24554 22.4C5.14664 20.7937 6.23039 18.4589 6.23039 15.9851V12.4999C6.23039 7.67509 10.1555 3.75 14.9805 3.75C19.8054 3.75 23.7305 7.67509 23.7305 12.4999V15.9851C23.7305 18.4589 24.8142 20.7937 26.703 22.3913C27.2017 22.8163 27.4805 23.4224 27.4805 24.0626C27.4805 25.2688 26.4993 26.25 25.293 26.25V26.25ZM14.9805 5.625C11.1891 5.625 8.10539 8.70872 8.10539 12.4999V15.9851C8.10539 19.0112 6.77925 21.8687 4.468 23.8225C4.42429 23.86 4.35539 23.9376 4.35539 24.0626C4.35539 24.2324 4.49799 24.375 4.66805 24.375H25.293C25.4629 24.375 25.6055 24.2324 25.6055 24.0626C25.6055 23.9376 25.5368 23.86 25.4954 23.825C23.1816 21.8687 21.8555 19.0112 21.8555 15.9851V12.4999C21.8555 8.70872 18.7717 5.625 14.9805 5.625V5.625Z" fill="black"/>
<path d="M14.9805 5.625C14.463 5.625 14.043 5.205 14.043 4.6875V0.9375C14.043 0.419998 14.463 0 14.9805 0C15.498 0 15.918 0.419998 15.918 0.9375V4.6875C15.918 5.205 15.498 5.625 14.9805 5.625Z" fill="black"/>
</svg>
