<svg id="cogwheel" xmlns="http://www.w3.org/2000/svg" width="511.998" height="512.001" viewBox="0 0 511.998 512.001">
  <g id="Group_332" data-name="Group 332">
    <g id="Group_331" data-name="Group 331">
      <path id="Path_255" data-name="Path 255" d="M243.84,243.985a17.046,17.046,0,1,0,12.185-5.053h-.077a16.957,16.957,0,0,0-12.015,4.949C243.917,243.9,243.849,243.968,243.84,243.985Z" fill="#fff"/>
      <path id="Path_256" data-name="Path 256" d="M273.963,86.323a8.659,8.659,0,0,0-6.605,2.142,8.506,8.506,0,0,0-2.825,6.34V207.786a8.54,8.54,0,0,0,5.692,8.047A42.989,42.989,0,0,1,298.692,256.6a33.336,33.336,0,0,1,0,4.514,8.533,8.533,0,0,0,4.232,7.987l98.389,56.917a8.46,8.46,0,0,0,4.275,1.152,8.742,8.742,0,0,0,2.722-.444,8.522,8.522,0,0,0,5.154-4.8,170.673,170.673,0,0,0-139.5-235.6ZM408.781,272.2a153.843,153.843,0,0,1-7.578,34.039l-85.41-49.408c-.017-.29-.034-.572-.051-.828a59.863,59.863,0,0,0-34.133-53.9V104.584A153.612,153.612,0,0,1,408.781,272.2Z" fill="#fff"/>
      <path id="Path_257" data-name="Path 257" d="M213.692,261.214a42.4,42.4,0,0,1,28.041-45.363,8.542,8.542,0,0,0,5.734-8.064V94.805a8.535,8.535,0,0,0-2.825-6.34,8.669,8.669,0,0,0-6.6-2.142A170.327,170.327,0,0,0,85.333,256a168.447,168.447,0,0,0,14.293,68.19,8.517,8.517,0,0,0,12.186,3.9L209.6,269.637A8.536,8.536,0,0,0,213.692,261.214ZM111.625,308.326a151.464,151.464,0,0,1-9.224-52.318V256a153.271,153.271,0,0,1,128-151.424V202.06a59.629,59.629,0,0,0-34.1,55.646Z" fill="#fff"/>
      <path id="Path_258" data-name="Path 258" d="M393.156,341.683l-97.707-55.552a8.565,8.565,0,0,0-10.052,1.186,42.738,42.738,0,0,1-58.308,0,8.5,8.5,0,0,0-10.155-1.126l-96.853,56.917a8.527,8.527,0,0,0-2.611,12.314,170.479,170.479,0,0,0,138.453,71.245,1.559,1.559,0,0,1,.282,0A170.771,170.771,0,0,0,395.921,354a8.527,8.527,0,0,0-2.765-12.314ZM256.2,409.6h-.282a153.467,153.467,0,0,1-118.895-56.644l83.379-49a59.957,59.957,0,0,0,71.765-.051l84.147,47.838A153.751,153.751,0,0,1,256.2,409.6Z" fill="#fff"/>
      <path id="Path_259" data-name="Path 259" d="M504.977,224.461l-42.035-7.569-2.423-9.079c-1.877-7.014-3.2-12-5.768-21.444l32.631-27.639a8.539,8.539,0,0,0,1.877-10.778l-23.04-39.936a8.544,8.544,0,0,0-10.266-3.763l-40.226,14.4L393.31,96.3,407.4,56.064a8.517,8.517,0,0,0-3.78-10.206L363.606,22.733A8.523,8.523,0,0,0,352.82,24.61L325.249,57.25l-30.575-8.2L287.1,7.022A8.544,8.544,0,0,0,278.7,0H232.534a8.537,8.537,0,0,0-8.4,7.031l-7.569,42.027-30.583,8.2-27.563-32.64a8.537,8.537,0,0,0-10.795-1.886L107.606,45.858a8.531,8.531,0,0,0-3.763,10.249l14.319,40.235L95.924,118.648,55.706,104.26a8.537,8.537,0,0,0-10.266,3.772L22.4,147.968a8.529,8.529,0,0,0,1.869,10.769l32.572,27.657L48.7,216.909,7.006,224.478A8.543,8.543,0,0,0,0,232.875v46.251a8.537,8.537,0,0,0,7.031,8.4L49.143,295.1l8.132,30.5-32.58,27.657a8.551,8.551,0,0,0-1.869,10.778l23.04,39.936a8.546,8.546,0,0,0,10.283,3.763l40.158-14.447,21.862,22.306-14.49,40.269a8.545,8.545,0,0,0,3.755,10.283l40.021,23.125a8.565,8.565,0,0,0,10.795-1.886l27.563-32.64,30.583,8.209,7.569,42.035a8.538,8.538,0,0,0,8.4,7.014h46.165a8.559,8.559,0,0,0,8.4-7.014l7.578-42.035,30.583-8.209,27.563,32.64a8.548,8.548,0,0,0,10.786,1.886l40.021-23.125a8.548,8.548,0,0,0,3.763-10.283l-14.473-40.209,22.383-22.391,40.218,14.473a8.547,8.547,0,0,0,10.283-3.763l23.04-39.936a8.543,8.543,0,0,0-1.877-10.778l-32.64-27.639c2.714-9.984,4.045-14.976,6.093-22.63l2.1-7.876,42.607-7.586a8.537,8.537,0,0,0,7.04-8.4V232.878A8.567,8.567,0,0,0,504.977,224.461Zm-10.044,47.513-40.909,7.287a8.533,8.533,0,0,0-6.75,6.2l-3.507,13.133c-2.364,8.866-3.772,14.148-7.492,27.793a8.51,8.51,0,0,0,2.714,8.747l31.351,26.547-15.915,27.58-38.6-13.892a8.576,8.576,0,0,0-8.926,2l-30.037,30.046a8.541,8.541,0,0,0-2,8.926l13.892,38.588L361.1,470.912l-26.462-31.326a8.462,8.462,0,0,0-8.721-2.731l-41.054,11.008a8.538,8.538,0,0,0-6.2,6.724l-7.27,40.346H239.5l-7.262-40.346a8.539,8.539,0,0,0-6.187-6.724L185,436.855a8.529,8.529,0,0,0-8.73,2.731l-26.453,31.326-27.665-15.991,13.884-38.588a8.549,8.549,0,0,0-1.937-8.866l-29.44-30.046a8.6,8.6,0,0,0-8.986-2.057l-38.6,13.892L41.156,361.668l31.266-26.539a8.525,8.525,0,0,0,2.722-8.713l-10.923-40.96a8.548,8.548,0,0,0-6.733-6.2l-40.422-7.27V240l40.013-7.262a8.529,8.529,0,0,0,6.716-6.187l10.923-40.96A8.526,8.526,0,0,0,72,176.878L40.73,150.332l15.923-27.6,38.6,13.815a8.512,8.512,0,0,0,8.917-2.005l29.867-29.952a8.533,8.533,0,0,0,2-8.892L122.292,57.088l27.691-16,26.453,31.317a8.522,8.522,0,0,0,8.73,2.739l41.045-11.008A8.564,8.564,0,0,0,232.4,57.4l7.27-40.337h31.9l7.262,40.329a8.55,8.55,0,0,0,6.2,6.733l41.045,11.008a8.473,8.473,0,0,0,8.721-2.731l26.462-31.326L388.967,57.1,375.442,95.735a8.523,8.523,0,0,0,2.022,8.866L407.5,134.553a8.526,8.526,0,0,0,8.9,1.988L455,122.726l15.923,27.588-31.343,26.547a8.54,8.54,0,0,0-2.714,8.755c3.541,13.013,4.983,18.423,7.168,26.6l3.831,14.328a8.538,8.538,0,0,0,6.724,6.2l40.346,7.27v31.967Z" fill="#fff"/>
    </g>
  </g>
</svg>
