<svg width="30" height="30" viewBox="0 0 30 30" fill="none" xmlns="http://www.w3.org/2000/svg">
<g clip-path="url(#clip0)">
<path d="M26.8909 5.8609C24.4497 2.68451 20.9181 0.649103 16.9456 0.129343C13.0123 -0.385189 9.11375 0.648264 5.95389 3.03853L4.81136 1.89438C4.48536 1.56799 4.18452 1.67713 4.14283 2.13609L3.76777 6.23183C3.72582 6.69079 4.06719 7.03286 4.52653 6.99143L8.62239 6.62134C9.08174 6.58003 9.19108 6.27894 8.86488 5.95255L7.67962 4.76581C10.2815 2.90137 13.443 2.10357 16.6324 2.52083C19.9662 2.95694 22.9299 4.66519 24.9785 7.33079C27.027 9.9962 27.9146 13.2996 27.4785 16.6328C27.1686 19 26.2174 21.181 24.7373 22.9806C24.1334 23.7146 23.4415 24.3852 22.6687 24.9789C20.0033 27.0275 16.6999 27.9154 13.3663 27.4792C10.0332 27.0431 7.06963 25.3348 5.02093 22.6695C3.02521 20.0731 2.12737 16.8514 2.49242 13.5981C2.56671 12.9361 2.09032 12.339 1.42811 12.265C0.766361 12.1904 0.169667 12.6671 0.0957011 13.3291C-0.33996 17.206 0.730281 21.0453 3.10834 24.1394C5.5496 27.3157 9.08148 29.3513 13.0535 29.871C17.0255 30.3905 20.9619 29.3321 24.1388 26.8909C25.0588 26.1841 25.8838 25.3848 26.6034 24.5098C28.3678 22.3657 29.5011 19.7673 29.8704 16.9461C30.39 12.9738 29.332 9.0371 26.8909 5.8609Z" fill="black"/>
<path d="M14.4107 5.23761C13.8715 5.23761 13.4344 5.67469 13.4344 6.21381V15.9436L22.3325 20.543C22.476 20.6174 22.6293 20.6527 22.78 20.6524C23.1337 20.6524 23.4748 20.46 23.6483 20.1242C23.8962 19.6451 23.7085 19.0561 23.2295 18.8081L15.3876 14.7541V6.21388C15.3875 5.67476 14.9503 5.23761 14.4107 5.23761Z" fill="black"/>
</g>
<defs>
<clipPath id="clip0">
<rect width="30" height="30" fill="white"/>
</clipPath>
</defs>
</svg>
