<svg width="41" height="41" viewBox="0 0 41 41" fill="none" xmlns="http://www.w3.org/2000/svg">
<path d="M8.32812 5.76562H12.1719C12.6816 5.76562 13.1704 5.56314 13.5308 5.20272C13.8913 4.8423 14.0937 4.35346 14.0938 3.84375C14.0937 3.33404 13.8913 2.8452 13.5308 2.48478C13.1704 2.12436 12.6816 1.92188 12.1719 1.92188H3.84375C3.33404 1.92188 2.8452 2.12436 2.48478 2.48478C2.12436 2.8452 1.92188 3.33404 1.92188 3.84375V12.1719C1.92188 12.6816 2.12436 13.1704 2.48478 13.5308C2.8452 13.8913 3.33404 14.0937 3.84375 14.0938C4.35346 14.0937 4.8423 13.8913 5.20272 13.5308C5.56314 13.1704 5.76562 12.6816 5.76562 12.1719V8.32812L15.0547 17.6172C15.2229 17.7854 15.4227 17.9189 15.6425 18.01C15.8624 18.101 16.098 18.1479 16.3359 18.1479C16.5739 18.1479 16.8095 18.101 17.0293 18.01C17.2492 17.9189 17.4489 17.7854 17.6172 17.6172C17.7854 17.4489 17.9189 17.2492 18.01 17.0293C18.101 16.8095 18.1479 16.5739 18.1479 16.3359C18.1479 16.098 18.101 15.8624 18.01 15.6425C17.9189 15.4227 17.7854 15.2229 17.6172 15.0547L8.32812 5.76562Z" fill="#3E2894"/>
<path d="M17.6172 23.3828C17.4489 23.2145 17.2492 23.0811 17.0293 22.99C16.8095 22.899 16.5739 22.8521 16.3359 22.8521C16.098 22.8521 15.8624 22.899 15.6425 22.99C15.4227 23.0811 15.2229 23.2145 15.0547 23.3828L5.76562 32.6719V28.8281C5.76562 28.3184 5.56314 27.8296 5.20272 27.4691C4.8423 27.1087 4.35346 26.9062 3.84375 26.9062C3.33404 26.9062 2.8452 27.1087 2.48478 27.4691C2.12436 27.8296 1.92188 28.3184 1.92188 28.8281V37.1562C1.92188 37.666 2.12436 38.1548 2.48478 38.5152C2.8452 38.8756 3.33404 39.0781 3.84375 39.0781H12.1719C12.6816 39.0781 13.1704 38.8756 13.5308 38.5152C13.8913 38.1548 14.0937 37.666 14.0938 37.1562C14.0937 36.6465 13.8913 36.1577 13.5308 35.7973C13.1704 35.4369 12.6816 35.2344 12.1719 35.2344H8.32812L17.6172 25.9453C17.7854 25.7771 17.9189 25.5773 18.01 25.3575C18.101 25.1376 18.1479 24.902 18.1479 24.6641C18.1479 24.4261 18.101 24.1905 18.01 23.9706C17.9189 23.7508 17.7854 23.5511 17.6172 23.3828V23.3828Z" fill="#3E2894"/>
<path d="M37.1562 1.92188H28.8281C28.3184 1.92188 27.8296 2.12436 27.4691 2.48478C27.1087 2.8452 26.9062 3.33404 26.9062 3.84375C26.9062 4.35346 27.1087 4.8423 27.4691 5.20272C27.8296 5.56314 28.3184 5.76562 28.8281 5.76562H32.6719L23.3828 15.0547C23.2145 15.2229 23.0811 15.4227 22.99 15.6425C22.899 15.8624 22.8521 16.098 22.8521 16.3359C22.8521 16.5739 22.899 16.8095 22.99 17.0293C23.0811 17.2492 23.2145 17.4489 23.3828 17.6172C23.5511 17.7854 23.7508 17.9189 23.9706 18.01C24.1905 18.101 24.4261 18.1479 24.6641 18.1479C24.902 18.1479 25.1376 18.101 25.3575 18.01C25.5773 17.9189 25.7771 17.7854 25.9453 17.6172L35.2344 8.32812V12.1719C35.2344 12.6816 35.4369 13.1704 35.7973 13.5308C36.1577 13.8913 36.6465 14.0937 37.1562 14.0938C37.666 14.0937 38.1548 13.8913 38.5152 13.5308C38.8756 13.1704 39.0781 12.6816 39.0781 12.1719V3.84375C39.0781 3.33404 38.8756 2.8452 38.5152 2.48478C38.1548 2.12436 37.666 1.92188 37.1562 1.92188Z" fill="#3E2894"/>
<path d="M37.1562 26.9062C36.6465 26.9062 36.1577 27.1087 35.7973 27.4691C35.4369 27.8296 35.2344 28.3184 35.2344 28.8281V32.6719L25.9453 23.3828C25.7771 23.2145 25.5773 23.0811 25.3575 22.99C25.1376 22.899 24.902 22.8521 24.6641 22.8521C24.4261 22.8521 24.1905 22.899 23.9706 22.99C23.7508 23.0811 23.5511 23.2145 23.3828 23.3828C23.2145 23.5511 23.0811 23.7508 22.99 23.9706C22.899 24.1905 22.8521 24.4261 22.8521 24.6641C22.8521 24.902 22.899 25.1376 22.99 25.3575C23.0811 25.5773 23.2145 25.7771 23.3828 25.9453L32.6719 35.2344H28.8281C28.3184 35.2344 27.8296 35.4369 27.4691 35.7973C27.1087 36.1577 26.9062 36.6465 26.9062 37.1562C26.9062 37.666 27.1087 38.1548 27.4691 38.5152C27.8296 38.8756 28.3184 39.0781 28.8281 39.0781H37.1562C37.666 39.0781 38.1548 38.8756 38.5152 38.5152C38.8756 38.1548 39.0781 37.666 39.0781 37.1562V28.8281C39.0781 28.3184 38.8756 27.8296 38.5152 27.4691C38.1548 27.1087 37.666 26.9062 37.1562 26.9062Z" fill="#3E2894"/>
</svg>
