<svg width="30" height="30" viewBox="0 0 30 30" fill="none" xmlns="http://www.w3.org/2000/svg">
<path d="M15 0C6.72967 0 0 6.7285 0 15C0 23.2715 6.72967 30 15 30C23.2715 30 30 23.2715 30 15C30 6.7285 23.2703 0 15 0ZM15 27.6762C8.01006 27.6762 2.32377 21.9899 2.32377 15C2.32377 8.01006 8.01006 2.32377 15 2.32377C21.9899 2.32377 27.6762 8.01006 27.6762 15C27.6762 21.9899 21.9899 27.6762 15 27.6762Z" fill="black"/>
<path d="M20.8096 13.7335H9.19072C8.54936 13.7335 8.02881 14.2541 8.02881 14.8954C8.02881 15.5368 8.54936 16.0574 9.19072 16.0574H20.8096C21.451 16.0574 21.9715 15.5368 21.9715 14.8954C21.9715 14.2541 21.451 13.7335 20.8096 13.7335Z" fill="black"/>
</svg>
