<svg width="42" height="41" viewBox="0 0 42 41" fill="none" xmlns="http://www.w3.org/2000/svg">
<g clip-path="url(#clip0)">
<path d="M16.525 20.5C13.6305 20.5 11.2749 22.7994 11.2749 25.625C11.2749 28.4506 13.6305 30.75 16.525 30.75C19.4194 30.75 21.775 28.4506 21.775 25.625C21.775 22.7994 19.4195 20.5 16.525 20.5ZM16.525 29.0417C14.5947 29.0417 13.0249 27.5093 13.0249 25.625C13.0249 23.7407 14.5947 22.2083 16.525 22.2083C18.4552 22.2083 20.025 23.7407 20.025 25.625C20.025 27.5093 18.4552 29.0417 16.525 29.0417Z" fill="#3E2894"/>
<path d="M31.26 28.7701L28.502 26.6603C28.5352 26.3203 28.5562 25.9735 28.5562 25.6267C28.5562 25.2747 28.5352 24.9246 28.5002 24.5726L31.2844 22.4406C31.9004 21.9316 32.0492 21.0808 31.6467 20.4265L28.6647 15.3954C28.2587 14.7377 27.4326 14.4541 26.6732 14.7309L23.4304 16.0035C22.8477 15.597 22.2404 15.2518 21.5929 14.9546L21.1011 11.5465C20.9578 10.8086 20.27 10.25 19.4983 10.25H13.5483C12.7713 10.25 12.0818 10.8206 11.9365 11.6064L11.4518 14.9787C10.7991 15.2811 10.1848 15.6312 9.61604 16.0242L6.35406 14.7429C5.61906 14.4748 4.78956 14.7549 4.37654 15.4262L1.41029 20.4368C1.00079 21.1014 1.14951 21.9538 1.79001 22.4817L4.54798 24.5915C4.51476 24.9314 4.49376 25.2783 4.49376 25.6251C4.49376 25.977 4.51476 26.3272 4.54979 26.6791L1.76376 28.8095C1.14779 29.3185 0.998981 30.1693 1.40151 30.8236L4.38351 35.8547C4.78948 36.5141 5.61553 36.796 6.37498 36.5192L9.61776 35.2465C10.2005 35.6531 10.8078 35.9982 11.4553 36.2955L11.947 39.7036C12.0905 40.4416 12.7783 41.0002 13.55 41.0002H19.5C20.277 41.0002 20.9665 40.4297 21.1117 39.6438L21.5965 36.2715C22.2492 35.9692 22.8634 35.619 23.4322 35.226L26.6942 36.5073C27.4309 36.7772 28.2604 36.4954 28.6717 35.824L31.6397 30.8152C32.0492 30.1504 31.9005 29.2979 31.26 28.7701ZM27.2158 34.8688L23.63 33.4611C23.3413 33.3449 23.0122 33.3928 22.7655 33.579C22.0813 34.1001 21.3025 34.5442 20.452 34.8996C20.172 35.0174 19.9725 35.2703 19.9305 35.5658L19.5 39.2917H13.6532L13.1212 35.5863C13.0775 35.2891 12.878 35.0345 12.5927 34.9184C11.7544 34.5767 11.0002 34.1445 10.2844 33.6013C10.0394 33.4151 9.70865 33.369 9.4199 33.4834L5.83415 34.8928L2.96937 30.0599L6.01437 27.7297C6.25759 27.5435 6.38187 27.2463 6.3434 26.9472C6.28393 26.5065 6.24365 26.0658 6.24365 25.625C6.24365 25.1859 6.28393 24.7486 6.34168 24.3284C6.38195 24.0294 6.2594 23.7287 6.01445 23.5426L2.96945 21.2124L5.83423 16.3795L9.41998 17.7872C9.7052 17.9016 10.0378 17.8555 10.2845 17.6693C10.9687 17.1483 11.7475 16.7041 12.598 16.3488C12.878 16.2309 13.0758 15.9797 13.1195 15.6842L13.5483 11.9583H19.3968L19.9288 15.6637C19.9725 15.9609 20.172 16.2155 20.4573 16.3316C21.2956 16.6733 22.0498 17.1055 22.7656 17.6487C23.014 17.8367 23.3448 17.8828 23.6301 17.7666L27.2158 16.3556L30.0806 21.1884L27.0356 23.5186C26.7924 23.7048 26.6681 24.0021 26.7066 24.3011C26.7661 24.7418 26.8063 25.1826 26.8063 25.6233C26.8063 26.0624 26.7661 26.4997 26.7083 26.9199C26.668 27.2189 26.7906 27.5196 27.0355 27.7058L30.0805 30.0359L27.2158 34.8688Z" fill="#3E2894"/>
<path d="M32.2749 5.125C30.3447 5.125 28.7749 6.65737 28.7749 8.54169C28.7749 10.426 30.3447 11.9584 32.2749 11.9584C34.2052 11.9584 35.775 10.426 35.775 8.54169C35.775 6.65737 34.2052 5.125 32.2749 5.125ZM32.2749 10.25C31.3107 10.25 30.525 9.48293 30.525 8.54169C30.525 7.60037 31.3107 6.83339 32.2749 6.83339C33.2391 6.83339 34.0249 7.60046 34.0249 8.54169C34.025 9.48293 33.2392 10.25 32.2749 10.25Z" fill="#3E2894"/>
<path d="M40.3845 9.93225C40.3704 9.92032 40.3547 9.90831 40.3407 9.89637L39.0405 8.91237C39.051 8.79106 39.0562 8.66806 39.0562 8.54169C39.0562 8.41357 39.0527 8.28889 39.0457 8.16244L40.3704 7.14769C40.8219 6.75475 40.9374 6.12269 40.6399 5.59137L39.0754 2.95032C38.7831 2.42589 38.1374 2.18669 37.4916 2.3985L35.9832 2.99132C35.7644 2.8495 35.5457 2.72482 35.3234 2.61719L35.0994 1.107C35.0487 0.486875 34.4992 0 33.8499 0H30.6999C30.084 0 29.5449 0.445875 29.4382 1.05743L29.2072 2.63081C28.9762 2.74524 28.7574 2.86656 28.5527 2.99636L27.0127 2.39161C26.4422 2.19006 25.8174 2.39842 25.4675 2.93486L23.8837 5.61188C23.5809 6.15168 23.7088 6.79575 24.2057 7.18525L25.5024 8.17606C25.4972 8.29561 25.4937 8.41693 25.4937 8.54161C25.4937 8.66629 25.4972 8.78761 25.5024 8.90893L24.1654 9.93225C23.7122 10.3252 23.5967 10.9589 23.8941 11.4919L25.4586 14.133C25.7526 14.6574 26.4001 14.8983 27.0424 14.6848L28.5509 14.092C28.7697 14.2338 28.9884 14.3585 29.2107 14.4661L29.4434 16.0481C29.5467 16.6477 30.0751 17.0833 30.6999 17.0833H33.8499C34.4641 17.0833 35.0049 16.6374 35.1116 16.0276L35.3426 14.4525C35.5736 14.3397 35.7888 14.2184 35.9883 14.0903L37.5354 14.6951C38.1024 14.8949 38.7324 14.6865 39.0824 14.1518L40.6679 11.4714C40.9532 10.9573 40.8377 10.3234 40.3845 9.93225ZM37.7717 12.9474L36.1897 12.3307C35.8974 12.218 35.5667 12.2641 35.3182 12.4572C35.019 12.6913 34.641 12.9048 34.193 13.0944C33.9148 13.2123 33.7188 13.4617 33.675 13.7555L33.437 15.375H31.1112L30.875 13.7538C30.8295 13.448 30.6178 13.1901 30.3238 13.079C29.9493 12.9389 29.5818 12.7305 29.202 12.4452C28.9552 12.2607 28.6297 12.218 28.341 12.3307L26.7782 12.9474L25.6179 10.9897L26.955 9.96813C27.1982 9.78194 27.3225 9.48637 27.284 9.18912C27.256 8.97732 27.2437 8.76543 27.2437 8.54169C27.2437 8.31796 27.2559 8.10607 27.2822 7.89426C27.3207 7.59533 27.1965 7.29976 26.9532 7.11526L25.6161 6.09371L26.7747 4.13595L28.3392 4.75095C28.6262 4.86539 28.9534 4.81926 29.2002 4.63652C29.5221 4.39565 29.9106 4.17695 30.3552 3.98909C30.6334 3.87122 30.8294 3.62177 30.8732 3.32797L31.1112 1.70847H33.4212L33.6609 3.33141C33.7047 3.63723 33.9165 3.89516 34.2105 4.00623C34.5849 4.14629 34.9524 4.35473 35.3322 4.64005C35.5773 4.82455 35.9028 4.86899 36.1932 4.75448L37.756 4.1378L38.9163 6.09555L37.5792 7.1171C37.322 7.31185 37.1977 7.63129 37.2573 7.94567C37.2957 8.14042 37.3062 8.33517 37.3062 8.54185C37.3062 8.76567 37.2765 8.97748 37.2485 9.1876C37.21 9.48654 37.336 9.78379 37.5792 9.96829L38.9285 10.9898L37.7717 12.9474Z" fill="#3E2894"/>
</g>
<defs>
<clipPath id="clip0">
<rect width="42" height="41" fill="white"/>
</clipPath>
</defs>
</svg>
