<svg width="42" height="41" viewBox="0 0 42 41" fill="none" xmlns="http://www.w3.org/2000/svg">
<g clip-path="url(#clip0)">
<path d="M16.525 20.5C13.6305 20.5 11.2749 22.7994 11.2749 25.625C11.2749 28.4506 13.6305 30.75 16.525 30.75C19.4194 30.75 21.775 28.4506 21.775 25.625C21.775 22.7994 19.4195 20.5 16.525 20.5ZM16.525 29.0417C14.5947 29.0417 13.0249 27.5093 13.0249 25.625C13.0249 23.7407 14.5947 22.2083 16.525 22.2083C18.4552 22.2083 20.025 23.7407 20.025 25.625C20.025 27.5093 18.4552 29.0417 16.525 29.0417Z" fill="#9A81FF"/>
<path d="M31.2601 28.7701L28.5021 26.6603C28.5353 26.3203 28.5563 25.9735 28.5563 25.6267C28.5563 25.2747 28.5353 24.9246 28.5003 24.5726L31.2845 22.4406C31.9005 21.9316 32.0493 21.0808 31.6468 20.4265L28.6648 15.3954C28.2588 14.7377 27.4327 14.4541 26.6733 14.7309L23.4305 16.0035C22.8478 15.597 22.2405 15.2518 21.593 14.9546L21.1012 11.5465C20.9579 10.8086 20.2701 10.25 19.4984 10.25H13.5484C12.7714 10.25 12.0819 10.8206 11.9366 11.6064L11.4519 14.9787C10.7992 15.2811 10.1849 15.6312 9.6161 16.0242L6.35412 14.7429C5.61912 14.4748 4.78962 14.7549 4.3766 15.4262L1.41035 20.4368C1.00085 21.1014 1.14957 21.9538 1.79007 22.4817L4.54804 24.5915C4.51482 24.9314 4.49382 25.2783 4.49382 25.6251C4.49382 25.977 4.51482 26.3272 4.54985 26.6791L1.76382 28.8095C1.14785 29.3185 0.99904 30.1693 1.40157 30.8236L4.38357 35.8547C4.78954 36.5141 5.61559 36.796 6.37504 36.5192L9.61782 35.2465C10.2006 35.6531 10.8079 35.9982 11.4554 36.2955L11.9471 39.7036C12.0906 40.4416 12.7784 41.0002 13.5501 41.0002H19.5001C20.2771 41.0002 20.9666 40.4297 21.1118 39.6438L21.5966 36.2715C22.2493 35.9692 22.8635 35.619 23.4323 35.226L26.6943 36.5073C27.431 36.7772 28.2605 36.4954 28.6718 35.824L31.6398 30.8152C32.0493 30.1504 31.9006 29.2979 31.2601 28.7701ZM27.2159 34.8688L23.6301 33.4611C23.3414 33.3449 23.0123 33.3928 22.7656 33.579C22.0814 34.1001 21.3026 34.5442 20.4521 34.8996C20.1721 35.0174 19.9726 35.2703 19.9306 35.5658L19.5001 39.2917H13.6533L13.1213 35.5863C13.0776 35.2891 12.8781 35.0345 12.5928 34.9184C11.7545 34.5767 11.0003 34.1445 10.2845 33.6013C10.0395 33.4151 9.70871 33.369 9.41996 33.4834L5.83421 34.8928L2.96943 30.0599L6.01443 27.7297C6.25765 27.5435 6.38193 27.2463 6.34346 26.9472C6.28399 26.5065 6.24371 26.0658 6.24371 25.625C6.24371 25.1859 6.28399 24.7486 6.34174 24.3284C6.38201 24.0294 6.25946 23.7287 6.01451 23.5426L2.96951 21.2124L5.83429 16.3795L9.42004 17.7872C9.70526 17.9016 10.0379 17.8555 10.2846 17.6693C10.9688 17.1483 11.7476 16.7041 12.5981 16.3488C12.8781 16.2309 13.0759 15.9797 13.1196 15.6842L13.5484 11.9583H19.3969L19.9289 15.6637C19.9726 15.9609 20.1721 16.2155 20.4574 16.3316C21.2957 16.6733 22.0499 17.1055 22.7657 17.6487C23.0141 17.8367 23.3449 17.8828 23.6302 17.7666L27.2159 16.3556L30.0807 21.1884L27.0357 23.5186C26.7925 23.7048 26.6682 24.0021 26.7067 24.3011C26.7662 24.7418 26.8064 25.1826 26.8064 25.6233C26.8064 26.0624 26.7662 26.4997 26.7084 26.9199C26.6681 27.2189 26.7907 27.5196 27.0356 27.7058L30.0806 30.0359L27.2159 34.8688Z" fill="#9A81FF"/>
<path d="M32.2749 5.125C30.3447 5.125 28.7749 6.65737 28.7749 8.54169C28.7749 10.426 30.3447 11.9584 32.2749 11.9584C34.2052 11.9584 35.775 10.426 35.775 8.54169C35.775 6.65737 34.2052 5.125 32.2749 5.125ZM32.2749 10.25C31.3107 10.25 30.525 9.48293 30.525 8.54169C30.525 7.60037 31.3107 6.83339 32.2749 6.83339C33.2391 6.83339 34.0249 7.60046 34.0249 8.54169C34.025 9.48293 33.2392 10.25 32.2749 10.25Z" fill="#9A81FF"/>
<path d="M40.3846 9.93225C40.3705 9.92032 40.3548 9.90831 40.3408 9.89637L39.0406 8.91237C39.0511 8.79106 39.0563 8.66806 39.0563 8.54169C39.0563 8.41357 39.0528 8.28889 39.0458 8.16244L40.3705 7.14769C40.822 6.75475 40.9375 6.12269 40.64 5.59137L39.0755 2.95032C38.7832 2.42589 38.1375 2.18669 37.4917 2.3985L35.9833 2.99132C35.7645 2.8495 35.5458 2.72482 35.3235 2.61719L35.0995 1.107C35.0488 0.486875 34.4993 0 33.85 0H30.7C30.0841 0 29.545 0.445875 29.4383 1.05743L29.2073 2.63081C28.9763 2.74524 28.7575 2.86656 28.5528 2.99636L27.0128 2.39161C26.4423 2.19006 25.8175 2.39842 25.4676 2.93486L23.8838 5.61188C23.581 6.15168 23.7089 6.79575 24.2058 7.18525L25.5025 8.17606C25.4973 8.29561 25.4938 8.41693 25.4938 8.54161C25.4938 8.66629 25.4973 8.78761 25.5025 8.90893L24.1655 9.93225C23.7123 10.3252 23.5968 10.9589 23.8942 11.4919L25.4587 14.133C25.7527 14.6574 26.4002 14.8983 27.0425 14.6848L28.551 14.092C28.7698 14.2338 28.9885 14.3585 29.2108 14.4661L29.4435 16.0481C29.5468 16.6477 30.0752 17.0833 30.7 17.0833H33.85C34.4642 17.0833 35.005 16.6374 35.1117 16.0276L35.3427 14.4525C35.5737 14.3397 35.7889 14.2184 35.9884 14.0903L37.5355 14.6951C38.1025 14.8949 38.7325 14.6865 39.0825 14.1518L40.668 11.4714C40.9533 10.9573 40.8378 10.3234 40.3846 9.93225ZM37.7718 12.9474L36.1898 12.3307C35.8975 12.218 35.5668 12.2641 35.3183 12.4572C35.0191 12.6913 34.6411 12.9048 34.1931 13.0944C33.9149 13.2123 33.7189 13.4617 33.6751 13.7555L33.4371 15.375H31.1113L30.8751 13.7538C30.8296 13.448 30.6179 13.1901 30.3239 13.079C29.9494 12.9389 29.5819 12.7305 29.2021 12.4452C28.9553 12.2607 28.6298 12.218 28.3411 12.3307L26.7783 12.9474L25.618 10.9897L26.9551 9.96813C27.1983 9.78194 27.3226 9.48637 27.2841 9.18912C27.2561 8.97732 27.2438 8.76543 27.2438 8.54169C27.2438 8.31796 27.256 8.10607 27.2823 7.89426C27.3208 7.59533 27.1966 7.29976 26.9533 7.11526L25.6162 6.09371L26.7748 4.13595L28.3393 4.75095C28.6263 4.86539 28.9535 4.81926 29.2003 4.63652C29.5222 4.39565 29.9107 4.17695 30.3553 3.98909C30.6335 3.87122 30.8295 3.62177 30.8733 3.32797L31.1113 1.70847H33.4213L33.661 3.33141C33.7048 3.63723 33.9166 3.89516 34.2106 4.00623C34.585 4.14629 34.9525 4.35473 35.3323 4.64005C35.5774 4.82455 35.9029 4.86899 36.1933 4.75448L37.7561 4.1378L38.9164 6.09555L37.5793 7.1171C37.3221 7.31185 37.1978 7.63129 37.2574 7.94567C37.2958 8.14042 37.3063 8.33517 37.3063 8.54185C37.3063 8.76567 37.2766 8.97748 37.2486 9.1876C37.2101 9.48654 37.3361 9.78379 37.5793 9.96829L38.9286 10.9898L37.7718 12.9474Z" fill="#9A81FF"/>
</g>
<defs>
<clipPath id="clip0">
<rect width="42" height="41" fill="white"/>
</clipPath>
</defs>
</svg>
