<svg xmlns="http://www.w3.org/2000/svg" width="496.066" height="510" viewBox="0 0 496.066 510">
  <g id="stopwatch" transform="translate(-6.967)">
    <path id="Path_252" data-name="Path 252" d="M257.573,120c-90.981,0-165,74.019-165,165s74.019,165,165,165,165-74.019,165-165S348.555,120,257.573,120ZM391.735,300A135.249,135.249,0,0,1,272.573,419.162V390h-30v29.162A135.249,135.249,0,0,1,123.411,300h29.162V270H123.411A135.249,135.249,0,0,1,242.573,150.838V180h30V150.838A135.247,135.247,0,0,1,391.735,270H362.573v30Z" fill="#fff"/>
    <path id="Path_253" data-name="Path 253" d="M310.606,210.754,276.963,244.4a45.014,45.014,0,1,0,21.213,21.213l33.643-33.645ZM257.573,300a15,15,0,1,1,15-15A15.016,15.016,0,0,1,257.573,300Z" fill="#fff"/>
    <path id="Path_254" data-name="Path 254" d="M460.644,103.216l21.177,21.177,21.213-21.213-63.64-63.64L418.181,60.753,439.43,82l-33.559,33.79A222.928,222.928,0,0,0,305.509,65.1L314.284,30h33.289V0h-180V30h33.289l8.775,35.1A223.033,223.033,0,0,0,106.7,118.076L70.6,81.969,91.819,60.754,70.606,39.541l-63.64,63.64,21.213,21.213,21.212-21.211,36.44,36.454A225,225,0,1,0,482.573,285a223.329,223.329,0,0,0-55.508-147.975ZM283.362,30,275.68,60.726a226.41,226.41,0,0,0-36.215,0L231.784,30ZM452.573,285c0,107.523-87.477,195-195,195s-195-87.477-195-195,87.477-195,195-195S452.573,177.477,452.573,285Z" fill="#fff"/>
  </g>
</svg>
